<svg width="40" height="40" viewBox="0 0 40 40" fill="none" xmlns="http://www.w3.org/2000/svg">
<rect width="40" height="40" rx="4" fill="white"/>
<path fill-rule="evenodd" clip-rule="evenodd" d="M20 10C14.4772 10 10 14.4772 10 20C10 25.5228 14.4772 30 20 30C25.5228 30 30 25.5228 30 20C30 14.4772 25.5228 10 20 10ZM11.3636 20C11.3634 16.2175 13.8245 12.875 17.4365 11.7522C21.0485 10.6295 24.9708 11.9878 27.1148 15.1039C29.2589 18.22 29.1258 22.3687 26.7864 25.3409C25.7444 23.789 24.2326 22.6117 22.4727 21.9818C23.2333 21.1677 23.6502 20.0913 23.6364 18.9773C23.6364 16.7045 22.0045 14.8864 20 14.8864C17.9955 14.8864 16.3636 16.7045 16.3636 18.9773C16.3523 20.1311 16.8043 21.2412 17.6182 22.0591C15.8458 22.6953 14.3508 23.9299 13.3909 25.55C12.0805 23.9977 11.3623 22.0314 11.3636 20ZM20.2273 21.5909C19.9783 21.5919 19.7295 21.6056 19.4818 21.6318C18.3756 21.2307 17.6628 20.1522 17.7273 18.9773C17.7273 17.4727 18.7455 16.25 20 16.25C21.2545 16.25 22.2727 17.4727 22.2727 18.9773C22.3287 20.1191 21.6583 21.1721 20.6 21.6045C20.4773 21.6 20.3545 21.5909 20.2273 21.5909ZM14.4 26.5909C15.3879 24.6622 17.2537 23.3358 19.4 23.0364C19.8425 23.1228 20.2985 23.1119 20.7364 23.0045C22.8575 23.291 24.7303 24.5339 25.8182 26.3773C22.6127 29.336 17.7002 29.4278 14.3864 26.5909H14.4Z" fill="#99A7C2"/>
</svg>
