<svg width="26" height="26" viewBox="0 0 26 26" fill="none" xmlns="http://www.w3.org/2000/svg">
<path d="M14.9242 0.185852L8.63672 6.47328L10.9381 15.0617L14.0272 15.8814L13.7014 14.6745L11.8207 14.1788L10.0042 7.39909L16.7846 9.21558L18.6014 15.996L17.5761 15.7128L17.9022 16.9193L19.5272 17.3638L25.8146 11.076L23.5126 2.48685L14.9242 0.185852ZM10.2839 6.35488L15.2467 1.39204L22.0274 3.20782L17.0639 8.17101L10.2839 6.35488ZM24.6084 10.7531L19.6446 15.7159L17.8284 8.9352L22.792 3.97201L24.6084 10.7531Z" fill="#005AD3"/>
<path d="M15.0623 10.9375L11.9556 10.0939L12.2817 11.3008L14.1793 11.8205L15.9961 18.6008L9.21612 16.7843L7.39963 10.0043L8.41644 10.2699L8.09039 9.0634L6.47347 8.63721L0.186035 14.9243L2.48739 23.5131L11.0762 25.8144L17.3636 19.527L15.0623 10.9375ZM1.39187 15.2468L6.35541 10.2833L8.17225 17.0637L3.20871 22.0269L1.39187 15.2468ZM10.7529 24.6089L3.97255 22.7921L8.93609 17.8282L15.7165 19.645L10.7529 24.6089Z" fill="#005AD3"/>
</svg>
