<svg width="13" height="7" viewBox="0 0 13 7" fill="none" xmlns="http://www.w3.org/2000/svg">
<path d="M1.35355 0.646447C1.15829 0.451184 0.841709 0.451184 0.646447 0.646447C0.451184 0.841709 0.451184 1.15829 0.646447 1.35355L1.35355 0.646447ZM6.5 6.5L6.14645 6.85355C6.34171 7.04882 6.65829 7.04882 6.85355 6.85355L6.5 6.5ZM12.3536 1.35355C12.5488 1.15829 12.5488 0.841709 12.3536 0.646447C12.1583 0.451184 11.8417 0.451184 11.6464 0.646447L12.3536 1.35355ZM0.646447 1.35355L6.14645 6.85355L6.85355 6.14645L1.35355 0.646447L0.646447 1.35355ZM6.85355 6.85355L12.3536 1.35355L11.6464 0.646447L6.14645 6.14645L6.85355 6.85355Z" fill="#005AD3"/>
</svg>
