<svg width="27" height="28" viewBox="0 0 27 28" fill="none" xmlns="http://www.w3.org/2000/svg">
<path d="M6.39721 6.77326C7.28192 5.88855 8.45838 5.40126 9.7098 5.40126C10.9612 5.40126 12.1372 5.88855 13.0224 6.77326C13.0883 6.8392 13.175 6.87262 13.2617 6.87262C13.3484 6.87262 13.4352 6.83965 13.5011 6.77326C13.6334 6.64094 13.6334 6.42642 13.5011 6.2941C12.4886 5.28113 11.1419 4.72339 9.70934 4.72339C8.27683 4.72339 6.93057 5.28113 5.9176 6.2941C5.78528 6.42642 5.78528 6.64094 5.9176 6.77326C6.04992 6.90558 6.26489 6.90558 6.39721 6.77326Z" fill="#005AD3"/>
<path d="M8.24013 7.46882C8.1349 7.31347 7.92445 7.27327 7.76955 7.37805C7.61464 7.48282 7.574 7.69327 7.67877 7.84863L9.51367 10.5606C9.57916 10.6572 9.68574 10.7096 9.79458 10.7096C9.86006 10.7096 9.926 10.6906 9.98425 10.6513C10.1392 10.5466 10.1798 10.3361 10.075 10.1808L8.24013 7.46882Z" fill="#005AD3"/>
<path d="M10.2011 15.9961C10.142 15.8281 9.98165 15.7125 9.77842 15.7089C9.60455 15.7175 9.45281 15.8263 9.39094 15.9867C9.34533 16.1063 9.08384 16.4821 8.87158 16.7869C8.20184 17.7493 7.36816 18.9465 7.36816 19.8326C7.36816 21.1707 8.45655 22.2591 9.79423 22.2591C11.1319 22.2591 12.2203 21.1707 12.2203 19.8326C12.2203 18.9596 11.4011 17.7818 10.7408 16.8321C10.52 16.516 10.2454 16.1217 10.2011 15.9961ZM9.79468 21.5821C8.83049 21.5821 8.04603 20.7977 8.04603 19.8331C8.04603 19.1597 8.87745 17.9647 9.43023 17.1712C9.57565 16.9621 9.69623 16.7874 9.79152 16.642C9.89358 16.8005 10.0259 16.9911 10.1871 17.2223C10.7273 17.9991 11.5433 19.1723 11.5433 19.8326C11.5433 20.7977 10.7589 21.5821 9.79468 21.5821Z" fill="#005AD3"/>
<path d="M25.61 4.7587L22.1299 3.04709V0.378505C22.1299 0.191537 21.9781 0.0397949 21.7912 0.0397949C21.6042 0.0397949 21.4524 0.191537 21.4524 0.378505V3.25754V8.73334C21.4524 8.92031 21.6042 9.07205 21.7912 9.07205H23.2643C23.2887 9.21883 25.1317 20.5548 21.7582 24.7232C21.0681 25.5762 20.2254 26.0527 19.1944 26.1801V25.481C19.1944 25.294 19.0426 25.1422 18.8557 25.1422H16.4066V12.8263H17.9095C18.0965 12.8263 18.2483 12.6746 18.2483 12.4876V2.82941C18.2483 2.64244 18.0965 2.4907 17.9095 2.4907H1.68038C1.49342 2.4907 1.34167 2.64244 1.34167 2.82941V12.4876C1.34167 12.6746 1.49342 12.8263 1.68038 12.8263H3.1838V25.1422H0.734706C0.547738 25.1422 0.395996 25.294 0.395996 25.481V27.6216C0.395996 27.8086 0.547738 27.9603 0.734706 27.9603H18.8557C19.0426 27.9603 19.1944 27.8086 19.1944 27.6216V26.8588C20.4309 26.7256 21.471 26.1552 22.2852 25.1495C25.7116 20.9142 24.1513 10.3343 23.9503 9.07251H25.461C25.6479 9.07251 25.7997 8.92076 25.7997 8.7338V5.06263C25.7992 4.93347 25.7261 4.8156 25.61 4.7587ZM2.01909 3.16812H17.5708V12.1489H16.0679H3.52251H2.01909V3.16812ZM3.86122 12.8263H15.7292V25.1422H3.86122V12.8263ZM18.517 27.2829H1.07342V25.8197H3.52251H16.0679H18.517V27.2829ZM25.1218 8.39463H22.1299V3.80173L25.1218 5.27309V8.39463Z" fill="#005AD3"/>
</svg>
