<svg width="24" height="24" viewBox="0 0 24 24" fill="none" xmlns="http://www.w3.org/2000/svg">
<path fill-rule="evenodd" clip-rule="evenodd" d="M3.81818 7.63636H20.1818C20.6337 7.63636 21 7.27005 21 6.81818C21 6.36631 20.6337 6 20.1818 6H3.81818C3.36631 6 3 6.36631 3 6.81818C3 7.27005 3.36631 7.63636 3.81818 7.63636ZM3.81818 11.4546C3.36631 11.4546 3 11.8209 3 12.2728C3 12.7246 3.36631 13.091 3.81818 13.091H14.3345H20.1818C20.6337 13.091 21 12.7246 21 12.2728C21 11.8209 20.6337 11.4546 20.1818 11.4546H3.81818ZM3.81818 16.9091H20.1818C20.6337 16.9091 21 17.2754 21 17.7272C21 18.1791 20.6337 18.5454 20.1818 18.5454H3.81818C3.36631 18.5454 3 18.1791 3 17.7272C3 17.2754 3.36631 16.9091 3.81818 16.9091Z" fill="#99A7C2"/>
</svg>
