<svg width="40" height="40" viewBox="0 0 40 40" fill="none" xmlns="http://www.w3.org/2000/svg">
<rect width="40" height="40" rx="4" fill="white"/>
<path fill-rule="evenodd" clip-rule="evenodd" d="M27.8629 25.4306C27.6769 25.2582 26.1661 23.711 26.1661 18.8291C26.1306 17.1602 25.5145 15.5558 24.4238 14.2921C23.8385 13.5923 23.1138 13.0222 22.2959 12.6179C22.2996 12.5771 22.2996 12.5361 22.2959 12.4954C22.2959 11.1172 21.1787 10 19.8005 10C18.4224 10 17.3051 11.1172 17.3051 12.4954C17.3015 12.5361 17.3015 12.5771 17.3051 12.6179C16.4873 13.0222 15.7626 13.5923 15.1773 14.2921C14.0866 15.5558 13.4705 17.1602 13.435 18.8291C13.435 23.702 11.9287 25.2446 11.7427 25.417C11.2322 25.7223 10.9948 26.3357 11.1665 26.9051C11.3477 27.5017 11.9043 27.9044 12.5276 27.8897H16.9649C16.7148 28.1511 16.7148 28.563 16.9649 28.8243C17.6968 29.576 18.7015 30 19.7506 30C20.7998 30 21.8045 29.576 22.5364 28.8243C22.7696 28.5668 22.7696 28.1744 22.5364 27.9169H27.0326C27.6559 27.9316 28.2126 27.5289 28.3938 26.9324C28.5793 26.3693 28.3611 25.752 27.8629 25.4306ZM19.8141 11.343C20.2891 11.3835 20.7003 11.6892 20.8758 12.1324C20.1756 11.9866 19.4528 11.9866 18.7525 12.1324C18.928 11.6892 19.3392 11.3835 19.8141 11.343ZM19.8141 13.3847C22.6907 13.3847 24.8049 16.2884 24.8049 18.8291C24.7794 20.3584 24.9579 21.8842 25.3358 23.3662H14.2925C14.6704 21.8842 14.8489 20.3584 14.8234 18.8291C14.8234 16.2884 16.9376 13.3847 19.8141 13.3847ZM19.7824 28.6474C19.1009 28.6547 18.4457 28.3844 17.9676 27.8988H21.5518C21.085 28.3736 20.4483 28.643 19.7824 28.6474ZM12.5548 26.5422C13.1223 26.054 13.5564 25.4294 13.8161 24.7273H25.8167C26.0765 25.4294 26.5105 26.054 27.078 26.5422H12.5548Z" fill="#99A7C2"/>
</svg>
