<svg width="32" height="24" viewBox="0 0 32 24" fill="none" xmlns="http://www.w3.org/2000/svg">
<path d="M27.2448 12.2377V12C27.2448 5.54402 21.9929 0.292114 15.5372 0.292114C11.9525 0.292114 8.61353 1.90158 6.37626 4.70811L6.10231 5.05143L6.78894 5.59875L7.06289 5.25514C9.13245 2.65904 12.2211 1.17016 15.5372 1.17016C21.5086 1.17016 26.3668 6.02841 26.3668 12V12.1993L22.9205 9.27924L22.3529 9.94919L27.0821 13.956L30.7623 8.8885L30.0517 8.3725L27.2448 12.2377ZM26.9276 12.6747L26.6498 12.439H27.0988L26.9276 12.6747ZM24.8688 17.515L25.6055 17.9927L25.367 18.3612C23.1962 21.7092 19.5215 23.7082 15.5375 23.7082C9.08153 23.7082 3.82933 18.4563 3.82933 12.0003C3.82933 11.5112 3.86474 11.0227 3.92475 10.543L0.942305 14.1875L0.262695 13.6317L4.22855 8.78431L8.71918 13.0546L8.11421 13.6911L4.8066 10.5454C4.74192 11.0227 4.70709 11.5112 4.70709 12C4.70709 17.9716 9.56562 22.8299 15.5372 22.8299C19.2224 22.8299 22.6216 20.9807 24.6297 17.8832L24.8688 17.515Z" fill="#005AD3"/>
</svg>
