<svg width="24" height="24" viewBox="0 0 24 24" fill="none" xmlns="http://www.w3.org/2000/svg">
<path fill-rule="evenodd" clip-rule="evenodd" d="M10.4567 8.44239L9.1646 9.75751C9.04284 9.89034 8.85832 9.94618 8.68334 9.90317C8.50836 9.86016 8.37076 9.72513 8.32446 9.55099C8.27815 9.37685 8.33051 9.19132 8.46101 9.06707L10.5981 6.88727C10.6543 6.83206 10.7231 6.79143 10.7986 6.76891L11.4233 6.14423C11.6159 5.95192 11.9278 5.95192 12.1203 6.14423L12.745 6.76891C12.8205 6.79143 12.8894 6.83206 12.9456 6.88727L15.0826 9.06379C15.2131 9.18803 15.2655 9.37357 15.2192 9.54771C15.1729 9.72185 15.0353 9.85687 14.8603 9.89988C14.6853 9.94289 14.5008 9.88705 14.379 9.75422L13.0869 8.43911V16.0273C13.0869 16.2997 12.8661 16.5205 12.5938 16.5205C12.3214 16.5205 12.1006 16.2997 12.1006 16.0273V7.51853L11.7718 7.18975L11.443 7.51853V16.0273C11.443 16.2997 11.2222 16.5205 10.9499 16.5205C10.6775 16.5205 10.4567 16.2997 10.4567 16.0273V8.44239ZM7.82648 17.0137H15.7172C15.9895 17.0137 16.2103 17.2345 16.2103 17.5068C16.2103 17.7792 15.9895 18 15.7172 18H7.82648C7.55411 18 7.33331 17.7792 7.33331 17.5068C7.33331 17.2345 7.55411 17.0137 7.82648 17.0137Z" fill="#00CAED"/>
</svg>
